<?xml version="1.0" encoding="utf-8"?>
<svg width="20px" height="20px" viewBox="0 0 50 50" version="1.1" xmlns:xlink="http://www.w3.org/1999/xlink" xmlns="http://www.w3.org/2000/svg">
  <desc>Created with Lunacy</desc>
  <defs>
    <path d="M0 0L50 0L50 50L0 50L0 0Z" id="path_1" />
    <clipPath id="mask_1">
      <use xlink:href="#path_1" />
    </clipPath>
  </defs>
  <g id="icons8_search">
    <path d="M0 0L50 0L50 50L0 50L0 0Z" id="Background" fill="none" stroke="none" />
    <g clip-path="url(#mask_1)">
      <path d="M0 17C0 7.60156 7.60156 0 17 0C26.3984 0 34 7.60156 34 17C34 20.8789 32.6797 24.4219 30.5 27.2813L42.625 39.375L38.375 43.625L26.0938 31.3438C23.4609 33.0156 20.3555 34 17 34C7.60156 34 0 26.3984 0 17ZM30 17C30 9.80078 24.1992 4 17 4C9.80078 4 4 9.80078 4 17C4 24.1992 9.80078 30 17 30C24.1992 30 30 24.1992 30 17Z" transform="translate(4 3)" id="Shape" fill="#FFF9F9" fill-rule="evenodd" stroke="none" />
    </g>
  </g>
</svg>